# xmcd CD database file
#
# Track frame offsets:
#	150
#	16235
#	36852
#	52720
#	69894
#	103681
#	139281
#	152404
#	171878
#	206347
#
# Disc length: 3134 seconds
#
# Revision: 0
# Processed by: cddbd v1.5.1PL0 Copyright (c) Steve Scherf et al.
# Submitted via: CDex 1.51
#
DISCID=760c3c0a
DTITLE=Chris Scott and the Faith Healers - Hands On
DYEAR=1900
DGENRE=Blues
TTITLE0=Rolling and Tumbling
TTITLE1=Spoonful
TTITLE2=Crazy 'bout You
TTITLE3=In the Mood
TTITLE4=Shake Your Hips
TTITLE5=Backdoor Man
TTITLE6=Empire State
TTITLE7=Evil
TTITLE8=Rolling Stone
TTITLE9=Whiskey and Women
EXTD=
EXTT0=
EXTT1=
EXTT2=
EXTT3=
EXTT4=
EXTT5=
EXTT6=
EXTT7=
EXTT8=
EXTT9=
PLAYORDER=
